<?xml version="1.0" encoding="iso-8859-1"?>
<!-- Generator: Adobe Illustrator 19.0.0, SVG Export Plug-In . SVG Version: 6.00 Build 0)  -->
<svg version="1.1" id="Capa_1" xmlns="http://www.w3.org/2000/svg" xmlns:xlink="http://www.w3.org/1999/xlink" x="0px" y="0px"
	 viewBox="0 0 512 512" style="enable-background:new 0 0 512 512;" xml:space="preserve">
<path style="fill:#F9F5F2;" d="M221.868,435.203h68.264c18.824-0.06,34.072-15.308,34.132-34.132v-42.665H187.736v42.665
	C187.796,419.903,203.045,435.151,221.868,435.203z"/>
<path style="fill:#24537E;" d="M405.585,384.004h-81.32v17.066c-0.06,18.824-15.308,34.072-34.132,34.132h-68.264
	c-18.824-0.06-34.072-15.308-34.132-34.132v-17.066h-81.32c-32.178,0.043-59.979,22.485-66.814,53.929l-13.994,65.534h85.33
	l8.533-51.198l-8.533,51.198h290.124l-8.533-51.198l8.533,51.198h85.33l-13.994-65.534
	C465.564,406.497,437.763,384.047,405.585,384.004z"/>
<path style="fill:#F9F5F2;" d="M358.397,324.273V153.612h-5.12c-18.303,31.7-52.137,51.224-88.744,51.198h-110.93v119.463
	c0,18.849,15.283,34.132,34.132,34.132h136.529C343.115,358.405,358.397,343.122,358.397,324.273z M204.802,230.409
	c-4.71,0-8.533-3.823-8.533-8.533c0-4.71,3.823-8.533,8.533-8.533c4.71,0,8.533,3.823,8.533,8.533
	C213.335,226.587,209.521,230.409,204.802,230.409z M307.199,230.409c-4.71,0-8.533-3.823-8.533-8.533
	c0-4.71,3.823-8.533,8.533-8.533c4.71,0,8.533,3.823,8.533,8.533C315.732,226.587,311.918,230.409,307.199,230.409z"/>
<path style="fill:#A05D35;" d="M153.604,213.343v-8.533h110.93c56.463,0.085,102.311-45.626,102.397-102.089
	c0-0.102,0-0.205,0-0.307V65.38C322.977,4.121,237.68-9.915,176.413,34.047c-35.771,25.667-56.975,67.01-56.941,111.041v102.397
	C119.472,228.626,134.755,213.343,153.604,213.343z"/>
<path style="fill:#F9F5F2;" d="M368.85,68.281c-0.648-0.956-1.246-1.963-1.92-2.901v2.901H368.85z"/>
<path style="fill:#A05D35;" d="M366.93,102.414c0.051,17.971-4.659,35.634-13.653,51.198h5.12v59.731
	c18.85,0,34.132,15.283,34.132,34.132V145.079c0.034-27.4-8.217-54.176-23.679-76.797h-1.92V102.414z"/>
<g>
	<path style="fill:#F9F5F2;" d="M119.472,247.476c0,18.85,15.283,34.132,34.132,34.132v-68.264
		C134.755,213.343,119.472,228.626,119.472,247.476z"/>
	<path style="fill:#F9F5F2;" d="M358.397,213.343v68.264c18.85,0,34.132-15.283,34.132-34.132S377.247,213.343,358.397,213.343z"/>
	<circle style="fill:#F9F5F2;" cx="307.19" cy="221.859" r="8.533"/>
	<circle style="fill:#F9F5F2;" cx="204.794" cy="221.859" r="8.533"/>
</g>
<path style="fill:#231F20;" d="M480.736,436.124c-7.808-35.284-39.013-60.465-75.151-60.653h-72.787v-9.386
	c19.848-4.079,34.107-21.546,34.132-41.812v-34.986c19.848-4.079,34.107-21.546,34.132-41.812V145.079
	c0.034-23.816-5.828-47.265-17.066-68.264h34.132V59.748h-42.665V17.083h-17.066v25.309
	c-56.668-56.583-148.475-56.514-205.066,0.154c-27.169,27.203-42.418,64.092-42.392,102.533v102.397
	c0.026,20.266,14.284,37.733,34.132,41.812v34.986c0.026,20.266,14.284,37.733,34.132,41.812v9.386h-72.787
	c-36.146,0.188-67.351,25.386-75.159,60.679l-13.994,65.534c-0.981,4.608,1.954,9.139,6.562,10.129
	c0.589,0.128,1.186,0.188,1.783,0.188h460.785c4.71,0,8.533-3.823,8.533-8.533c0-0.597-0.06-1.195-0.188-1.783L480.736,436.124z
	 M196.269,366.938h119.463v34.132c0,14.139-11.46,25.599-25.599,25.599h-68.264c-14.139,0-25.599-11.46-25.599-25.599V366.938z
	 M366.93,271.616v-48.28c13.329,4.702,20.326,19.327,15.624,32.656C379.977,263.296,374.235,269.039,366.93,271.616z
	 M383.996,213.591c-5.026-3.883-10.854-6.579-17.066-7.893v-52.086c-0.017-1.033-0.222-2.056-0.606-3.021
	c-0.111-0.282-0.265-0.529-0.401-0.802c-0.145-0.358-0.324-0.708-0.521-1.05c0.333-0.734,0.563-1.51,0.853-2.253
	c0.614-1.425,1.152-2.876,1.707-4.326c1.05-2.765,2.005-5.555,2.842-8.397c0.452-1.544,0.853-3.089,1.271-4.659
	c0.734-2.987,1.306-5.973,1.792-9.054c0.23-1.399,0.512-2.782,0.683-4.198c0.572-4.454,0.879-8.943,0.913-13.44v-3.499
	c5.666,14.728,8.559,30.378,8.533,46.164L383.996,213.591L383.996,213.591z M160.004,60.363
	C206.859,7.338,287.829,2.347,340.853,49.202c6.477,5.717,12.347,12.083,17.544,18.986v34.226c0,4.13-0.273,8.251-0.802,12.339
	c-1.579,12.194-5.564,23.944-11.707,34.593c-16.836,29.004-47.819,46.881-81.354,46.932h-110.93c-4.71,0-8.533,3.823-8.533,8.533
	v0.853c-6.212,1.314-12.04,4.011-17.066,7.893v-68.478C127.979,113.882,139.362,83.752,160.004,60.363z M128.005,247.476
	c0.017-10.845,6.844-20.513,17.066-24.14v48.28C134.857,267.989,128.022,258.321,128.005,247.476z M162.137,324.273v-110.93h27.971
	c-1.536,2.586-2.355,5.529-2.372,8.533c0,9.429,7.637,17.066,17.066,17.066c9.429,0,17.066-7.637,17.066-17.066
	c-0.017-3.004-0.836-5.948-2.372-8.533h45.037c3.703-0.017,7.407-0.23,11.093-0.623c0.657-0.068,1.314-0.119,1.971-0.196
	c3.524-0.427,7.006-1.015,10.444-1.766c0.666-0.145,1.331-0.316,1.997-0.478c2.278-0.529,4.505-1.135,6.681-1.809
	c-7.355,5.811-8.601,16.486-2.782,23.841c5.811,7.355,16.486,8.601,23.841,2.782c7.355-5.811,8.601-16.486,2.782-23.841
	c-3.234-4.087-8.158-6.46-13.363-6.442h-0.111c1.229-0.512,2.432-1.092,3.644-1.655c0.555-0.256,1.118-0.495,1.707-0.759
	c3.166-1.519,6.246-3.183,9.25-4.983l1.707-1.067c3.055-1.903,6.041-3.917,8.9-6.118c0.162-0.119,0.316-0.265,0.478-0.384
	c2.782-2.176,5.453-4.497,8.03-6.929c0.393-0.367,0.785-0.717,1.169-1.084c2.56-2.483,4.992-5.12,7.321-7.85
	c0.188-0.23,0.418-0.427,0.606-0.649v150.941c0,14.139-11.46,25.599-25.599,25.599H187.736
	C173.597,349.872,162.137,338.412,162.137,324.273z M408.29,494.934l-7.347-44.065l-16.827,2.799l6.878,41.266H121.008l6.878-41.266
	l-16.827-2.799l-7.347,44.065H36.155l11.784-55.192c6.084-27.459,30.352-47.051,58.477-47.205h72.787v8.533
	c0.026,23.551,19.114,42.64,42.665,42.665h68.264c23.551-0.026,42.64-19.114,42.665-42.665v-8.533h72.787
	c28.116,0.154,52.384,19.728,58.468,47.179l11.793,55.217H408.29z"/>
<g>
</g>
<g>
</g>
<g>
</g>
<g>
</g>
<g>
</g>
<g>
</g>
<g>
</g>
<g>
</g>
<g>
</g>
<g>
</g>
<g>
</g>
<g>
</g>
<g>
</g>
<g>
</g>
<g>
</g>
</svg>
