<svg fill="white" id="Layer_5" enable-background="new 0 0 64 64" height="512" viewBox="0 0 64 64" width="512" xmlns="http://www.w3.org/2000/svg"><path d="m60 10h-3v-2c0-1.103-.897-2-2-2h-2c-1.103 0-2 .897-2 2v2h-4v-2c0-1.103-.897-2-2-2h-2c-1.103 0-2 .897-2 2v2h-18v-2c0-1.103-.897-2-2-2h-2c-1.103 0-2 .897-2 2v2h-4v-2c0-1.103-.897-2-2-2h-2c-1.103 0-2 .897-2 2v2h-3c-1.654 0-3 1.346-3 3v42c0 1.654 1.346 3 3 3h56c1.654 0 3-1.346 3-3v-42c0-1.654-1.346-3-3-3zm-7-2h2l.002 6h-2.002zm-10 0h2l.002 6h-2.002zm-24 0h2l.002 6h-2.002zm-10 0h2l.002 6h-2.002zm-5 4h3v2c0 1.103.897 2 2 2h2c1.103 0 2-.897 2-2v-2h4v2c0 1.103.897 2 2 2h2c1.103 0 2-.897 2-2v-2h18v2c0 1.103.897 2 2 2h2c1.103 0 2-.897 2-2v-2h4v2c0 1.103.897 2 2 2h2c1.103 0 2-.897 2-2v-2h3c.552 0 1 .448 1 1v5h-58v-5c0-.552.448-1 1-1zm56 44h-56c-.552 0-1-.448-1-1v-35h58v35c0 .552-.448 1-1 1z"/><path d="m51 48h-19.104c3.659-2.303 6.104-6.367 6.104-11 0-2.979-1.018-5.719-2.71-7.914.848-2.966 3.591-5.086 6.71-5.086 3.519 0 6.432 2.614 6.92 6h-3.92l5 6.667 5-6.667h-4.059c-.499-4.493-4.316-8-8.941-8-3.607 0-6.84 2.199-8.249 5.415-2.312-2.113-5.379-3.415-8.751-3.415-6.402 0-11.862 4.764-12.835 11h-4.165l5 6.667 5-6.667h-3.816c.949-5.126 5.503-9 10.816-9 6.065 0 11 4.935 11 11s-4.935 11-11 11h-12v2h38v4.868l8.803-5.868-8.803-5.868zm-1-14.667-1-1.333h2zm-37 5-1-1.333h2zm40 8.535 3.197 2.132-3.197 2.132z"/><path d="m5 48h2v2h-2z"/><path d="m9 48h2v2h-2z"/><path d="m5 22h2v2h-2z"/><path d="m5 26h2v2h-2z"/><path d="m5 30h2v2h-2z"/></svg>
